# xmcd
#
# Track frame offsets: 
#        150
#        14245
#        34426
#        55293
#        71583
#        96321
#        112673
#        127591
#        147877
#        169998
#
# Disc length: 2540 seconds
#
# Revision: 0
# Processed by: cddbd v1.5.2PL0 Copyright (c) Steve Scherf et al.
# Submitted via: ExactAudioCopyFreeDBPlugin 1.0
#
DISCID=8b09ea0a
DTITLE=The Hurdle Brothers - Wide Embrace
DYEAR=2009
DGENRE=Americana
TTITLE0=A Chapel on the Other Side
TTITLE1=Recognize Your Destination
TTITLE2=I Won't Kneel
TTITLE3=The Old Days
TTITLE4=Quatro Caminos
TTITLE5=Trail to Jerusalem
TTITLE6=Wide Embrace
TTITLE7=A Different Light Around You
TTITLE8=See the World Through My Eyes
TTITLE9=If I Fall
EXTD=
EXTT0=
EXTT1=
EXTT2=
EXTT3=
EXTT4=
EXTT5=
EXTT6=
EXTT7=
EXTT8=
EXTT9=
PLAYORDER=
